# xmcd
#
# Track frame offsets: 
#        150
#        14513
#        30731
#        54716
#        74268
#        91465
#        116285
#        156035
#        177956
#        200578
#        224240
#
# Disc length: 3231 seconds
#
# Revision: 0
# Processed by: cddbd v1.5.2PL0 Copyright (c) Steve Scherf et al.
# Submitted via: ExactAudioCopy v0.95a3
#
DISCID=9f0c9d0b
DTITLE=Aaliyah - Aaliyah Special Edition Rare Tracks and Rare Visuals
DYEAR=2005
DGENRE=Ballad
TTITLE0=Are You Feelin' Me?
TTITLE1=Messed Up
TTITLE2=Rock The Boat (Club Mix By Mixzo)
TTITLE3=Rock The Boat (Club Mix By Doug Lazy)
TTITLE4=More Than A Woman (12" Version)
TTITLE5=More Than A Woman (Bump N Flex Club Mix)
TTITLE6=More Than A Woman (Maw Main Mix)
TTITLE7=Try Again (Timbaland Mix)
TTITLE8=Try Again (D'Jam Hassan Mix)
TTITLE9=Try Again (Knuchie Remix)
TTITLE10=More Than A Woman (Knuchie Remix)
EXTD=
EXTT0=
EXTT1=
EXTT2=
EXTT3=
EXTT4=
EXTT5=
EXTT6=
EXTT7=
EXTT8=
EXTT9=
EXTT10=
PLAYORDER=
